<?xml version="1.0" encoding="utf-8"?>
<!-- Generator: Adobe Illustrator 23.0.2, SVG Export Plug-In . SVG Version: 6.00 Build 0)  -->
<svg version="1.1" id="Layer_1" xmlns="http://www.w3.org/2000/svg" xmlns:xlink="http://www.w3.org/1999/xlink" x="0px" y="0px"
	 viewBox="0 0 1000 500" style="enable-background:new 0 0 1000 500;" xml:space="preserve">
<style type="text/css">
	.st0{fill:url(#SVGID_1_);}
	.st1{fill:url(#SVGID_2_);}
	.st2{fill:url(#SVGID_3_);}
	.st3{fill:url(#SVGID_4_);}
	.st4{fill:url(#SVGID_5_);}
	.st5{fill:url(#SVGID_6_);}
</style>
<g>
	<g>
		<linearGradient id="SVGID_1_" gradientUnits="userSpaceOnUse" x1="933.3178" y1="145.2166" x2="797.3261" y2="166.7555">
			<stop  offset="0" style="stop-color:#00EFA9"/>
			<stop  offset="0.7394" style="stop-color:#3F56F0"/>
		</linearGradient>
		<path class="st0" d="M923.99,147.02c0.81-0.79,1.63-1.57,2.44-2.41c4.01-4.09,5.66-9.73,4.36-15.02c-1.18-4.91-4.71-8.93-9.73-11
			c2.31-6.56,0.18-13.63-5.5-17.86c-5.25-3.9-11.84-4.17-17.55-0.71c-2.26-4.66-6.3-7.85-11.23-8.78
			c-5.19-1.02-10.36,0.64-14.27,4.57l-33.95,33.86c-0.2-1.29-0.24-2.65-0.27-4.12c-0.03-0.91-0.03-1.83-0.11-2.74
			c-0.05-1.27-0.13-2.55-0.16-3.82c-0.07-3.16-0.18-6.39-0.88-9.59c-1.09-5.07-4.6-9.2-9.43-11.05c-4.82-1.83-10.16-1.12-14.24,1.91
			c-2.76,1.94-4.39,4.66-4.7,7.88c-0.34,4.22-0.52,8.5-0.68,12.66c-0.27,6.22-1.95,12.11-3.67,18.32c-0.45,1.51-0.9,2.99-1.28,4.49
			c-2.68,9.89-5.03,19.63-4.44,30.07c1.36,23.11,16.5,42.44,37.65,48.08c4.39,1.18,8.74,1.78,13.05,1.78
			c10.14,0,20.04-3.24,29.55-9.7c7.18-4.86,13.13-11.01,18.92-16.96l0.27-0.27c7.25-7.41,14.74-15.08,22.34-22.49
			c3.91-3.79,5.64-8.63,4.73-13.25c-0.71-3.65-2.95-6.81-6.19-8.85c1.16-1.2,2.33-2.34,3.48-3.51L923.99,147.02z M918.48,137
			c-9.27,9.35-18.6,18.63-27.92,27.92c-1.43,1.41-2.87,2.85-4.25,4.28c-1.43,1.4-2.83,2.79-4.22,4.21
			c-2.05,2.11-2.31,4.86-0.69,6.88c1.17,1.4,3.14,2.34,4.87,2.41c1.86,0.04,3.46-1.43,4.36-2.31c3.77-3.74,7.54-7.49,11.28-11.26
			l7.29-7.24c0.77-0.79,1.67-1.16,2.58-1.09c0.84,0.11,1.66,0.61,2.27,1.47c0.56,0.69,1.13,1.52-1.09,3.76l-5.78,5.9
			c-7.4,7.52-14.81,15.06-22.3,22.55c-4.19,4.19-9.83,9.46-16.67,13.13c-12.72,6.7-25.09,6.88-36.8,0.45
			c-14.61-8.06-21.92-21.29-21.69-39.36c0.11-8.06,2.17-15.74,4.46-23.59c2.93-10.13,5.54-20.15,4.97-30.96
			c-0.03-0.88,0.11-1.86,0.27-2.92c0.1-0.49,0.18-0.91,0.19-1.36c0.07-0.47,0.14-0.99,1.54-1.25c0.45-0.11,0.84-0.14,1.25-0.14
			c2.15,0,3.54,1.27,4.09,3.71c0.48,2.15,0.68,4.38,0.88,6.77c0,0.07,0,0.18,0.03,0.27l-0.13,4.6c0,1.36-0.03,2.76,0,4.12
			c0.09,5.3,1.86,9.24,5.41,12.03c3.67,2.88,8.48,2.69,11.7-0.52l23.6-23.64c4.2-4.21,8.43-8.46,12.72-12.61
			c0.91-0.87,1.97-1.32,3.1-1.32c1.25,0.03,2.52,0.68,3.56,1.79c1.78,1.89,1.7,4.57-0.13,6.41c-5.17,5.19-10.35,10.37-15.54,15.57
			l-2.45,2.45c-2.47,2.49-5,4.99-7.42,7.44c-1.43,1.4-2.17,2.99-2.17,4.63c0,1.4,0.58,2.68,1.6,3.71c2.31,2.28,5.52,2.11,8.1-0.41
			c0.03-0.03,0.07-0.05,0.07-0.05l33.4-33.31c1.97-1.93,4.73-2,6.59-0.13c2.15,2.13,2.24,4.77,0.27,6.78
			c-4.05,4.08-8.1,8.13-12.14,12.17l-11.43,11.4c-3.37,3.36-6.73,6.69-10.03,10.02c-1.21,1.18-1.88,2.68-1.89,4.25
			c0,1.46,0.54,2.79,1.52,3.77c2.11,2.19,5.48,2.19,7.99-0.07c0.25-0.19,0.52-0.47,0.75-0.74l4.92-4.97
			c7.4-7.39,14.97-15.03,22.59-22.44c0.71-0.72,2.04-1.36,3.21-1.56c2.81-0.41,4.28,1.97,4.76,3.03
			C921.01,133.82,919.74,135.76,918.48,137z"/>
	</g>
	<linearGradient id="SVGID_2_" gradientUnits="userSpaceOnUse" x1="986.4053" y1="206.6658" x2="909.7289" y2="218.8101">
		<stop  offset="0" style="stop-color:#00EFA9"/>
		<stop  offset="0.7394" style="stop-color:#3F56F0"/>
	</linearGradient>
	<path class="st1" d="M981.48,177.33c-13.31,52.62-60.17,73.89-62.16,74.77c-0.45,0.2-0.91,0.29-1.36,0.29
		c-1.31,0-2.56-0.75-3.12-2.02c-0.77-1.72,0-3.73,1.72-4.48c0.47-0.21,45.85-20.88,58.33-70.22c0.45-1.83,2.31-2.92,4.12-2.47
		C980.84,173.66,981.93,175.5,981.48,177.33z"/>
	<linearGradient id="SVGID_3_" gradientUnits="userSpaceOnUse" x1="859.3904" y1="47.0368" x2="747.2386" y2="64.7999">
		<stop  offset="0" style="stop-color:#00EFA9"/>
		<stop  offset="0.7394" style="stop-color:#3F56F0"/>
	</linearGradient>
	<path class="st2" d="M750.89,81.93c1.45-2.11,36.43-52.01,101.85-56.88c1.95-0.14,3.51,1.25,3.65,3.13
		c0.14,1.86-1.27,3.49-3.13,3.64c-62.09,4.64-96.42,53.48-96.76,53.96c-0.66,0.97-1.72,1.47-2.81,1.47c-0.66,0-1.33-0.18-1.92-0.59
		C750.23,85.6,749.84,83.49,750.89,81.93z"/>
	<linearGradient id="SVGID_4_" gradientUnits="userSpaceOnUse" x1="962.5484" y1="200.9781" x2="899.9036" y2="210.9001">
		<stop  offset="0" style="stop-color:#00EFA9"/>
		<stop  offset="0.7394" style="stop-color:#3F56F0"/>
	</linearGradient>
	<path class="st3" d="M907.52,233.72c-0.36,0.13-0.72,0.18-1.07,0.18c-1.41,0-2.74-0.91-3.22-2.33c-0.59-1.79,0.38-3.71,2.15-4.3
		c0.36-0.13,34.87-12.02,47.42-47.05c0.64-1.77,2.58-2.69,4.35-2.04c1.77,0.63,2.69,2.58,2.06,4.35
		C945.51,220.76,909.06,233.22,907.52,233.72z"/>
	<linearGradient id="SVGID_5_" gradientUnits="userSpaceOnUse" x1="847.2046" y1="67.796" x2="776.1216" y2="79.0544">
		<stop  offset="0" style="stop-color:#00EFA9"/>
		<stop  offset="0.7394" style="stop-color:#3F56F0"/>
	</linearGradient>
	<path class="st4" d="M842.17,59.54c-37.21,2.87-57.68,32.99-57.9,33.29c-0.64,0.98-1.72,1.52-2.83,1.52
		c-0.64,0-1.31-0.18-1.88-0.57c-1.56-1.04-1.99-3.15-0.95-4.71c0.91-1.36,22.55-33.2,63.04-36.32c1.92-0.13,3.51,1.25,3.65,3.13
		C845.45,57.75,844.04,59.4,842.17,59.54z"/>
	<linearGradient id="SVGID_6_" gradientUnits="userSpaceOnUse" x1="795.0599" y1="201.1022" x2="19.2183" y2="323.9835">
		<stop  offset="0" style="stop-color:#00EFA9"/>
		<stop  offset="0.7394" style="stop-color:#3F56F0"/>
	</linearGradient>
	<path class="st5" d="M804.36,264.46c-1.79-2.73-4.31-4.57-7.56-5.51c-3.26-0.95-6.83-0.73-10.71,0.63
		c-3.89,1.37-6.99,4.68-9.3,9.93c-1.47,2.1-3.15,4.78-5.04,8.04c-1.89,3.26-3.89,6.62-5.99,10.08c-2.1,3.47-4.15,6.83-6.14,10.08
		c-2,3.26-3.73,5.83-5.2,7.72c-2.73,4.62-5.25,7.77-7.56,9.45c-2.31,1.68-4.15,2.16-5.51,1.42c-1.37-0.73-2.21-2.73-2.52-5.99
		c-0.32-3.25,0.16-7.51,1.42-12.76c1.47-6.3,3.62-13.23,6.46-20.8c2.84-7.56,5.83-15.02,8.98-22.37c3.15-7.35,6.3-14.23,9.45-20.64
		c3.15-6.41,5.67-11.61,7.56-15.6c1.26-2.52,0.95-4.67-0.95-6.46c-1.89-1.78-4.62-3.1-8.19-3.94c-3.57-0.84-7.67-1.31-12.29-1.42
		c-4.62-0.1-9.09,0.27-13.39,1.1c-4.31,0.84-8.19,2.05-11.66,3.62s-5.73,3.62-6.78,6.14c-7.36,14.71-14.23,29.62-20.64,44.75
		c-6.41,15.13-13.92,30.15-22.53,45.06c-5.47,10.08-9.4,14.55-11.82,13.39c-2.42-1.15-2.89-7.09-1.42-17.8
		c0.63-6.51,2.41-13.86,5.36-22.06c2.94-8.19,6.3-16.23,10.08-24.11c3.78-7.88,7.51-15.13,11.19-21.74
		c3.67-6.62,6.56-11.71,8.67-15.28c1.68-3.36,1.58-6.14-0.31-8.35c-1.89-2.21-4.73-3.88-8.51-5.04c-3.78-1.15-8.19-1.73-13.24-1.73
		s-9.88,0.42-14.49,1.26c-4.62,0.84-8.67,2.1-12.13,3.78c-3.47,1.68-5.62,3.78-6.46,6.3c-2.94,6.51-6.57,13.92-10.87,22.22
		c-4.31,8.3-8.45,16.97-12.45,26c-2,4.54-3.88,9.09-5.62,13.65c-0.48,0.74-0.97,1.49-1.47,2.26c-2.42,3.68-4.99,7.46-7.72,11.34
		c-2.73,3.89-5.25,7.41-7.56,10.56c-1.68,2.52-3.42,4.57-5.2,6.14c-1.79,1.57-3.36,2.31-4.73,2.21c-1.37-0.1-2.36-1.1-2.99-2.99
		c-0.63-1.89-0.53-5.04,0.32-9.45c1.47-7.56,4.1-16.02,7.88-25.37c3.78-9.34,8.14-19.22,13.08-29.62c4.93-10.4,10.34-21,16.23-31.83
		c5.88-10.82,11.61-21.53,17.17-32.14c5.56-10.61,10.82-20.9,15.76-30.88c4.93-9.98,8.98-19.17,12.13-27.57
		c0.63-1.47,0.16-2.84-1.42-4.1c-1.58-1.26-3.73-2.36-6.46-3.31c-2.73-0.95-5.88-1.68-9.45-2.21c-3.57-0.52-7.14-0.79-10.71-0.79
		c-5.47,0-10.08,0.53-13.87,1.58c-3.78,1.05-6.2,2.52-7.25,4.41c-4.21,5.47-10.24,16.12-18.12,31.98
		c-7.88,15.86-18.33,37.34-31.35,64.44c-3.78-2.52-7.83-4.25-12.13-5.2c-4.31-0.95-8.98-1.42-14.02-1.42
		c-8.19,0-16.49,2.16-24.89,6.46c-8.41,4.31-16.34,10.03-23.79,17.17c-7.46,7.14-14.23,15.28-20.32,24.42
		c-5.29,7.94-9.71,16.11-13.26,24.52c-3.29,5.33-6.23,10.04-8.8,14.08c-4.41,6.93-8.09,12.61-11.03,17.02
		c-2.94,4.41-5.51,7.88-7.72,10.4c-2.21,2.52-4.36,4.62-6.46,6.3c2.73-6.72,5.78-14.13,9.14-22.22c3.36-8.08,6.88-16.33,10.56-24.74
		c3.67-8.4,7.25-16.7,10.71-24.89c3.47-8.19,6.67-15.76,9.61-22.69l7.25-16.7c-1.89-2.52-4.88-4.36-8.98-5.52
		c-4.1-1.15-8.46-1.89-13.08-2.21c-4.62-0.31-9.19-0.16-13.71,0.47c-4.52,0.63-8.35,1.47-11.5,2.52c-2.31,3.99-4.57,8.14-6.77,12.45
		c-2.21,4.31-4.99,9.72-8.35,16.23c-3.36,6.51-7.36,14.45-11.97,23.79c-4.62,9.35-10.4,21.06-17.33,35.13
		c-3.78,5.47-7.56,10.08-11.34,13.87c-3.78,3.78-7.04,5.88-9.77,6.3c-2.73,0.42-4.68-1.15-5.83-4.73c-1.16-3.57-1-9.98,0.47-19.22
		c0.84-6.51,2.89-13.81,6.14-21.9c3.25-8.08,6.77-15.91,10.56-23.48c3.78-7.56,7.45-14.5,11.03-20.8c3.57-6.3,6.19-11.03,7.88-14.18
		c-0.84-1.89-2.68-3.41-5.51-4.57c-2.84-1.15-6.14-2.05-9.93-2.68c-3.78-0.63-7.77-0.99-11.97-1.1c-4.2-0.1-8.14,0-11.82,0.32
		c-3.68,0.31-6.77,0.68-9.3,1.1c-2.52,0.42-3.99,0.84-4.41,1.26c-1.68,3.57-3.31,6.83-4.88,9.77c-1.58,2.94-2.99,6.3-4.25,10.08
		c-3.36,6.93-6.77,14.34-10.24,22.22c-3.47,7.88-6.72,15.65-9.77,23.32c-0.12,0.3-0.23,0.6-0.34,0.9c-1.98,3.05-4.06,6.21-6.27,9.5
		c-3.89,5.78-7.93,11.34-12.13,16.7c-4.2,5.36-8.35,10.29-12.45,14.81c-4.1,4.52-8.04,7.83-11.82,9.93
		c-3.78,2.52-7.62,4.36-11.5,5.52c-3.89,1.16-7.36,1.42-10.4,0.79c-3.05-0.63-5.51-2.31-7.4-5.04c-1.89-2.73-2.94-6.93-3.15-12.6
		c8.61-3.57,17.33-8.67,26.15-15.28c8.82-6.62,16.7-13.91,23.63-21.9c6.93-7.98,12.6-16.07,17.02-24.26
		c4.41-8.19,6.56-15.65,6.46-22.37c-0.11-6.72-2.94-12.24-8.51-16.54c-5.57-4.3-14.65-6.46-27.26-6.46c-7.14,0-14.5,1.63-22.06,4.88
		c-7.56,3.26-14.92,7.67-22.06,13.24c-7.14,5.57-13.76,12.08-19.85,19.54c-6.09,7.46-11.34,15.49-15.76,24.11
		c-2.31,4.62-4.36,9.45-6.14,14.5c-0.1,0.28-0.19,0.56-0.29,0.84c-1.66,2.29-3.4,4.69-5.23,7.2c-2.52,3.47-5.04,6.77-7.56,9.93
		c-2.52,3.58-4.99,6.62-7.41,9.14c-2.42,2.52-4.47,4.25-6.14,5.2c-1.68,0.95-2.84,0.79-3.47-0.47c-0.63-1.26-0.53-4.1,0.32-8.51
		c0.63-2.94,1.58-6.82,2.84-11.66c1.26-4.83,3.47-12.08,6.62-21.74c5.46-17.22,7.3-31.46,5.51-42.7
		c-1.79-11.24-5.94-19.01-12.45-23.32c-6.51-4.3-14.76-4.93-24.74-1.89c-9.98,3.05-20.32,10.03-31.04,20.95
		c1.05-3.36,2.94-7.72,5.67-13.08c2.73-5.36,5.88-11.29,9.45-17.8c3.57-6.51,7.45-13.28,11.66-20.33
		c4.2-7.04,8.24-13.86,12.13-20.48c3.88-6.62,7.56-12.76,11.03-18.43c3.47-5.67,6.25-10.4,8.35-14.18c1.47-2.73,0.16-5.2-3.94-7.4
		c-4.1-2.21-9.03-3.89-14.81-5.04c-5.78-1.15-11.61-1.62-17.49-1.42c-5.88,0.21-9.88,1.26-11.97,3.15
		c-4.62,4.41-9.98,11.61-16.07,21.59c-6.1,9.98-12.34,21.59-18.75,34.82c-6.41,13.24-12.71,27.52-18.91,42.86
		c-6.2,15.34-11.87,30.67-17.02,46.01c-5.15,15.34-9.5,30.09-13.08,44.27c-3.57,14.18-5.78,26.74-6.62,37.66
		c0.84,3.36,2.05,6.1,3.62,8.19c1.58,2.1,4.1,4.05,7.56,5.83c3.47,1.79,7.99,3.52,13.55,5.2c5.56,1.68,12.65,3.78,21.27,6.3
		c-0.63-4.83-0.84-10.66-0.63-17.49c0.21-6.82,0.89-13.97,2.05-21.43c1.15-7.46,2.84-14.91,5.04-22.37
		c2.21-7.45,4.88-14.49,8.04-21.11c3.15-6.62,6.82-12.34,11.03-17.17c4.2-4.83,8.93-8.4,14.18-10.71c4.62-1.89,8.14-3.1,10.56-3.62
		c2.41-0.52,3.94-0.26,4.57,0.79c0.63,1.05,0.52,2.99-0.32,5.83c-0.84,2.84-2.1,6.67-3.78,11.5c-1.89,4.83-3.99,10.24-6.3,16.23
		c-2.31,5.99-4.41,12.13-6.3,18.43s-3.42,12.55-4.57,18.75c-1.16,6.2-1.53,11.92-1.1,17.17c0.21,2.73,0.79,5.41,1.73,8.04
		c0.95,2.63,2.36,5.04,4.25,7.25c1.89,2.21,4.36,4.21,7.41,5.99c3.04,1.78,6.88,3.1,11.5,3.94c11.13,1.89,21.06,0.84,29.78-3.15
		c8.72-3.99,16.86-10.08,24.42-18.28c2.23-2.41,4.42-5,6.58-7.71c1.69,3.65,4.01,6.96,6.97,9.92c3.99,3.99,8.51,7.3,13.55,9.93
		c5.04,2.63,10.4,4.62,16.07,5.99c5.67,1.36,11.03,2.05,16.07,2.05c11.13,0,21.27-2.41,30.41-7.25
		c9.14-4.83,17.59-11.24,25.37-19.22c1.26-1.29,2.5-2.63,3.74-3.98c0.94,4.24,2.42,8.14,4.45,11.7c4.62,8.09,12.5,13.61,23.63,16.54
		c5.25,1.47,10.24,1.99,14.97,1.57c4.73-0.42,9.19-1.53,13.39-3.31c4.2-1.78,8.19-4.04,11.97-6.77c3.78-2.73,7.45-5.78,11.03-9.14
		c-1.26,4.83-2.94,9.35-5.04,13.55c-2.1,4.2-4.47,8.19-7.09,11.97c-2.63,3.78-5.47,7.51-8.51,11.19c-3.05,3.67-6.25,7.51-9.61,11.5
		c-4.62,5.46-9.09,10.97-13.39,16.54c-4.31,5.56-7.93,11.13-10.87,16.7c-2.94,5.56-4.88,11.13-5.83,16.7
		c-0.95,5.56-0.47,11.08,1.42,16.54c2.1,4.83,5.36,8.45,9.77,10.87c4.41,2.41,9.08,3.73,14.02,3.94c4.93,0.21,9.82-0.74,14.65-2.84
		c4.83-2.1,8.72-5.46,11.66-10.08c3.99-6.1,8.24-13.13,12.76-21.11c4.52-7.99,8.87-16.28,13.08-24.89
		c4.2-8.62,8.04-17.33,11.5-26.15c3.47-8.82,6.14-17.12,8.04-24.89c7.56-1.47,15.07-5.36,22.53-11.66
		c5.75-4.86,11.31-10.42,16.69-16.65c0.33,1.15,0.7,2.3,1.11,3.42c4.21,12.19,14.08,19.85,29.62,23c5.25,1.05,10.56,0.89,15.91-0.47
		c5.36-1.36,10.5-3.41,15.44-6.14c4.93-2.73,9.66-5.99,14.18-9.77c4.51-3.78,8.56-7.56,12.13-11.34c0,6.73,2.57,12.08,7.72,16.07
		c5.15,3.99,11.19,5.99,18.12,5.99c11.13,0,20.8-3.31,28.99-9.93c3.75-3.03,7.35-6.35,10.79-9.94c0.86,2.67,1.93,5.3,3.23,7.89
		c2.21,4.41,5.15,8.46,8.82,12.13c3.68,3.68,8.14,6.25,13.39,7.72c6.3,1.26,12.29,1.31,17.96,0.16c5.67-1.16,10.97-3.15,15.91-5.99
		c4.93-2.84,9.4-6.19,13.39-10.08c3.99-3.88,7.56-7.82,10.71-11.82c0.84,4.83,2.57,9.56,5.2,14.18c2.62,4.62,6.56,8.41,11.82,11.34
		c6.72,3.15,13.23,4.2,19.54,3.15c6.3-1.05,12.23-3.31,17.8-6.77c5.56-3.47,10.56-7.61,14.97-12.45c4.41-4.83,8.19-9.45,11.34-13.87
		c3.57-5.04,6.56-9.66,8.98-13.86c2.41-4.2,4.78-8.45,7.09-12.76c2.31-4.3,4.78-8.87,7.4-13.71c2.62-4.83,5.83-10.4,9.61-16.7
		C806.1,270.13,806.14,267.19,804.36,264.46z M231.65,280.84c1.05-1.89,2.62-4.57,4.73-8.04c2.1-3.47,4.41-7.14,6.93-11.03
		c2.52-3.88,5.2-7.77,8.04-11.66c2.84-3.89,5.62-7.19,8.35-9.93c4.2-4.2,7.09-5.93,8.67-5.2c1.58,0.74,1.94,2.79,1.1,6.14
		c-0.84,3.36-2.63,7.46-5.36,12.29c-2.73,4.83-6.2,9.14-10.4,12.92c-4.2,4.21-8.19,7.62-11.97,10.24
		c-3.78,2.63-7.14,4.78-10.08,6.46V280.84z M547.86,252.17c-3.47,6.51-7.2,13.19-11.19,20.01c-3.99,6.83-7.99,13.55-11.97,20.17
		c-3.99,6.62-7.72,12.4-11.19,17.33c-3.47,4.94-6.46,8.66-8.98,11.19c-2.52,2.52-4.2,3.15-5.04,1.89c-1.26-1.68-1.89-4.51-1.89-8.51
		c0-3.99,0.73-8.66,2.21-14.02c1.47-5.36,3.78-11.08,6.93-17.17c3.15-6.09,7.25-12.08,12.29-17.96
		c11.55-14.07,20.48-23.16,26.78-27.26c6.3-4.1,9.98-4.88,11.03-2.36C554.32,240.09,551.33,245.66,547.86,252.17z"/>
</g>
<g>
</g>
<g>
</g>
<g>
</g>
<g>
</g>
<g>
</g>
<g>
</g>
</svg>
